<?xml version="1.0" encoding="UTF-8" standalone="no"?><svg xmlns="http://www.w3.org/2000/svg" xmlns:xlink="http://www.w3.org/1999/xlink" clip-rule="evenodd" stroke-miterlimit="10" viewBox="0 0 1024 768"><desc>SVG generated by Keynote</desc><defs></defs><g transform="matrix(1.00, 0.00, -0.00, -1.00, 0.0, 768.0)"><image xlink:href="A2697FAC6825B5AE3EA281E59ABE9BC5.png" width="600.00" height="450.00" transform="matrix(1.71, 0.00, -0.00, -1.71, 0.0, 768.0)"></image><g><clipPath id="clip0x618000ab2480"><path d="M -16.2 77.5 L 166.0 77.5 L 166.0 214.1 L -16.2 214.1 Z M -16.2 77.5 "></path></clipPath><g clip-path="url(#clip0x618000ab2480)"><path d="M 152.1 19.4 C 186.9 45.3 186.9 87.3 152.1 113.2 C 117.3 139.1 60.9 139.1 26.1 113.2 C -8.7 87.3 -8.7 45.3 26.1 19.4 C 60.9 -6.5 117.3 -6.5 152.1 19.4 Z M 152.1 19.4 " fill="none" stroke="#C82505" stroke-width="2.00" transform="matrix(1.00, 0.00, 0.00, -1.00, -14.2, 212.1)"></path></g></g><g><clipPath id="clip0x618000ab2660"><path d="M 287.8 77.5 L 470.0 77.5 L 470.0 214.1 L 287.8 214.1 Z M 287.8 77.5 "></path></clipPath><g clip-path="url(#clip0x618000ab2660)"><path d="M 152.1 19.4 C 186.9 45.3 186.9 87.3 152.1 113.2 C 117.3 139.1 60.9 139.1 26.1 113.2 C -8.7 87.3 -8.7 45.3 26.1 19.4 C 60.9 -6.5 117.3 -6.5 152.1 19.4 Z M 152.1 19.4 " fill="none" stroke="#C82505" stroke-width="2.00" transform="matrix(1.00, 0.00, 0.00, -1.00, 289.8, 212.1)"></path></g></g><g><clipPath id="clip0x618000ab28a0"><path d="M 785.3 84.3 L 1050.5 84.3 L 1050.5 239.0 L 785.3 239.0 Z M 785.3 84.3 "></path></clipPath><g clip-path="url(#clip0x618000ab28a0)"><path d="M 223.0 22.1 C 274.0 51.5 274.0 99.2 223.0 128.6 C 172.0 158.0 89.3 158.0 38.3 128.6 C -12.8 99.2 -12.8 51.5 38.3 22.1 C 89.3 -7.4 172.0 -7.4 223.0 22.1 Z M 223.0 22.1 " fill="none" stroke="#C82505" stroke-width="2.00" transform="matrix(1.00, 0.00, 0.00, -1.00, 787.3, 237.0)"></path></g></g></g></svg>