<?xml version="1.0" encoding="UTF-8" standalone="no"?><svg xmlns="http://www.w3.org/2000/svg" xmlns:xlink="http://www.w3.org/1999/xlink" clip-rule="evenodd" stroke-miterlimit="10" viewBox="0 0 1024 768"><desc>SVG generated by Keynote</desc><defs></defs><g transform="matrix(1.00, 0.00, -0.00, -1.00, 0.0, 768.0)"><path d="M 0.0 768.0 L 1024.0 768.0 L 1024.0 0.0 L 0.0 0.0 Z M 0.0 768.0 " fill="#F4F4F4"></path><text xml:space="preserve" font-family="HelveticaNeue-Thin,Helvetica Neue" font-size="77.4" fill="#414141" transform="matrix(1.00, 0.00, -0.00, -1.00, 263.8, 408.2)">S</text><text xml:space="preserve" font-family="HelveticaNeue-Thin,Helvetica Neue" font-size="77.4" fill="#414141" transform="matrix(1.00, 0.00, -0.00, -1.00, 312.6, 408.2)">å</text><text xml:space="preserve" font-family="HelveticaNeue-Thin,Helvetica Neue" font-size="77.4" fill="#414141" transform="matrix(1.00, 0.00, -0.00, -1.00, 351.3, 408.2)">d</text><text xml:space="preserve" font-family="HelveticaNeue-Thin,Helvetica Neue" font-size="77.4" fill="#414141" transform="matrix(1.00, 0.00, -0.00, -1.00, 394.4, 408.2)">a</text><text xml:space="preserve" font-family="HelveticaNeue-Thin,Helvetica Neue" font-size="77.4" fill="#414141" transform="matrix(1.00, 0.00, -0.00, -1.00, 433.1, 408.2)">n</text><text xml:space="preserve" font-family="HelveticaNeue-Thin,Helvetica Neue" font-size="77.4" fill="#414141" transform="matrix(1.00, 0.00, -0.00, -1.00, 473.3, 408.2)"> </text><text xml:space="preserve" font-family="HelveticaNeue-Thin,Helvetica Neue" font-size="77.4" fill="#414141" transform="matrix(1.00, 0.00, -0.00, -1.00, 494.8, 408.2)">f</text><text xml:space="preserve" font-family="HelveticaNeue-Thin,Helvetica Neue" font-size="77.4" fill="#414141" transform="matrix(1.00, 0.00, -0.00, -1.00, 513.4, 408.2)">å</text><text xml:space="preserve" font-family="HelveticaNeue-Thin,Helvetica Neue" font-size="77.4" fill="#414141" transform="matrix(1.00, 0.00, -0.00, -1.00, 552.1, 408.2)">r</text><text xml:space="preserve" font-family="HelveticaNeue-Thin,Helvetica Neue" font-size="77.4" fill="#414141" transform="matrix(1.00, 0.00, -0.00, -1.00, 573.7, 408.2)"> </text><text xml:space="preserve" font-family="HelveticaNeue-Thin,Helvetica Neue" font-size="77.4" fill="#414141" transform="matrix(1.00, 0.00, -0.00, -1.00, 595.2, 408.2)">d</text><text xml:space="preserve" font-family="HelveticaNeue-Thin,Helvetica Neue" font-size="77.4" fill="#414141" transform="matrix(1.00, 0.00, -0.00, -1.00, 638.2, 408.2)">u</text><text xml:space="preserve" font-family="HelveticaNeue-Thin,Helvetica Neue" font-size="77.4" fill="#414141" transform="matrix(1.00, 0.00, -0.00, -1.00, 678.4, 408.2)"> </text><text xml:space="preserve" font-family="HelveticaNeue-Thin,Helvetica Neue" font-size="77.4" fill="#414141" transform="matrix(1.00, 0.00, -0.00, -1.00, 699.9, 408.2)">e</text><text xml:space="preserve" font-family="HelveticaNeue-Thin,Helvetica Neue" font-size="77.4" fill="#414141" transform="matrix(1.00, 0.00, -0.00, -1.00, 740.1, 408.2)">t</text><text xml:space="preserve" font-family="HelveticaNeue-Thin,Helvetica Neue" font-size="77.4" fill="#414141" transform="matrix(1.00, 0.00, -0.00, -1.00, 760.2, 408.2)"> </text><text xml:space="preserve" font-family="Bitter-Bold,Bitter" font-weight="bold" font-size="77.4" fill="#414141" transform="matrix(1.00, 0.00, -0.00, -1.00, 65.2, 305.3)">d</text><text xml:space="preserve" font-family="Bitter-Bold,Bitter" font-weight="bold" font-size="77.4" fill="#414141" transform="matrix(1.00, 0.00, -0.00, -1.00, 113.6, 305.3)">e</text><text xml:space="preserve" font-family="Bitter-Bold,Bitter" font-weight="bold" font-size="77.4" fill="#414141" transform="matrix(1.00, 0.00, -0.00, -1.00, 156.7, 305.3)">s</text><text xml:space="preserve" font-family="Bitter-Bold,Bitter" font-weight="bold" font-size="77.4" fill="#414141" transform="matrix(1.00, 0.00, -0.00, -1.00, 194.7, 305.3)">i</text><text xml:space="preserve" font-family="Bitter-Bold,Bitter" font-weight="bold" font-size="77.4" fill="#414141" transform="matrix(1.00, 0.00, -0.00, -1.00, 222.4, 305.3)">g</text><text xml:space="preserve" font-family="Bitter-Bold,Bitter" font-weight="bold" font-size="77.4" fill="#414141" transform="matrix(1.00, 0.00, -0.00, -1.00, 270.1, 305.3)">n</text><text xml:space="preserve" font-family="Bitter-Bold,Bitter" font-weight="bold" font-size="77.4" fill="#414141" transform="matrix(1.00, 0.00, -0.00, -1.00, 322.3, 305.3)"> </text><text xml:space="preserve" font-family="Bitter-Bold,Bitter" font-weight="bold" font-size="77.4" fill="#414141" transform="matrix(1.00, 0.00, -0.00, -1.00, 340.5, 305.3)">d</text><text xml:space="preserve" font-family="Bitter-Bold,Bitter" font-weight="bold" font-size="77.4" fill="#414141" transform="matrix(1.00, 0.00, -0.00, -1.00, 388.9, 305.3)">e</text><text xml:space="preserve" font-family="Bitter-Bold,Bitter" font-weight="bold" font-size="77.4" fill="#414141" transform="matrix(1.00, 0.00, -0.00, -1.00, 432.0, 305.3)">r</text><text xml:space="preserve" font-family="Bitter-Bold,Bitter" font-weight="bold" font-size="77.4" fill="#414141" transform="matrix(1.00, 0.00, -0.00, -1.00, 470.0, 305.3)"> </text><text xml:space="preserve" font-family="Bitter-Bold,Bitter" font-weight="bold" font-size="77.4" fill="#414141" transform="matrix(1.00, 0.00, -0.00, -1.00, 488.2, 305.3)">k</text><text xml:space="preserve" font-family="Bitter-Bold,Bitter" font-weight="bold" font-size="77.4" fill="#414141" transform="matrix(1.00, 0.00, -0.00, -1.00, 537.3, 305.3)">o</text><text xml:space="preserve" font-family="Bitter-Bold,Bitter" font-weight="bold" font-size="77.4" fill="#414141" transform="matrix(1.00, 0.00, -0.00, -1.00, 583.1, 305.3)">n</text><text xml:space="preserve" font-family="Bitter-Bold,Bitter" font-weight="bold" font-size="77.4" fill="#414141" transform="matrix(1.00, 0.00, -0.00, -1.00, 635.4, 305.3)">v</text><text xml:space="preserve" font-family="Bitter-Bold,Bitter" font-weight="bold" font-size="77.4" fill="#414141" transform="matrix(1.00, 0.00, -0.00, -1.00, 681.8, 305.3)">e</text><text xml:space="preserve" font-family="Bitter-Bold,Bitter" font-weight="bold" font-size="77.4" fill="#414141" transform="matrix(1.00, 0.00, -0.00, -1.00, 724.9, 305.3)">r</text><text xml:space="preserve" font-family="Bitter-Bold,Bitter" font-weight="bold" font-size="77.4" fill="#414141" transform="matrix(1.00, 0.00, -0.00, -1.00, 762.8, 305.3)">t</text><text xml:space="preserve" font-family="Bitter-Bold,Bitter" font-weight="bold" font-size="77.4" fill="#414141" transform="matrix(1.00, 0.00, -0.00, -1.00, 796.7, 305.3)">e</text><text xml:space="preserve" font-family="Bitter-Bold,Bitter" font-weight="bold" font-size="77.4" fill="#414141" transform="matrix(1.00, 0.00, -0.00, -1.00, 839.8, 305.3)">r</text><text xml:space="preserve" font-family="Bitter-Bold,Bitter" font-weight="bold" font-size="77.4" fill="#414141" transform="matrix(1.00, 0.00, -0.00, -1.00, 877.7, 305.3)">e</text><text xml:space="preserve" font-family="Bitter-Bold,Bitter" font-weight="bold" font-size="77.4" fill="#414141" transform="matrix(1.00, 0.00, -0.00, -1.00, 920.9, 305.3)">r</text><text xml:space="preserve" font-family="HelveticaNeue-Medium,Helvetica Neue" font-size="42.0" fill="#F38F18" transform="matrix(1.00, 0.00, -0.00, -1.00, 291.8, 584.5)">C</text><text xml:space="preserve" font-family="HelveticaNeue-Medium,Helvetica Neue" font-size="42.0" fill="#F38F18" transform="matrix(1.00, 0.00, -0.00, -1.00, 322.1, 584.5)">o</text><text xml:space="preserve" font-family="HelveticaNeue-Medium,Helvetica Neue" font-size="42.0" fill="#F38F18" transform="matrix(1.00, 0.00, -0.00, -1.00, 347.0, 584.5)">n</text><text xml:space="preserve" font-family="HelveticaNeue-Medium,Helvetica Neue" font-size="42.0" fill="#F38F18" transform="matrix(1.00, 0.00, -0.00, -1.00, 371.1, 584.5)">v</text><text xml:space="preserve" font-family="HelveticaNeue-Medium,Helvetica Neue" font-size="42.0" fill="#F38F18" transform="matrix(1.00, 0.00, -0.00, -1.00, 392.9, 584.5)">e</text><text xml:space="preserve" font-family="HelveticaNeue-Medium,Helvetica Neue" font-size="42.0" fill="#F38F18" transform="matrix(1.00, 0.00, -0.00, -1.00, 416.3, 584.5)">r</text><text xml:space="preserve" font-family="HelveticaNeue-Medium,Helvetica Neue" font-size="42.0" fill="#F38F18" transform="matrix(1.00, 0.00, -0.00, -1.00, 431.0, 584.5)">s</text><text xml:space="preserve" font-family="HelveticaNeue-Medium,Helvetica Neue" font-size="42.0" fill="#F38F18" transform="matrix(1.00, 0.00, -0.00, -1.00, 452.8, 584.5)">i</text><text xml:space="preserve" font-family="HelveticaNeue-Medium,Helvetica Neue" font-size="42.0" fill="#F38F18" transform="matrix(1.00, 0.00, -0.00, -1.00, 463.0, 584.5)">o</text><text xml:space="preserve" font-family="HelveticaNeue-Medium,Helvetica Neue" font-size="42.0" fill="#F38F18" transform="matrix(1.00, 0.00, -0.00, -1.00, 487.9, 584.5)">n</text><text xml:space="preserve" font-family="HelveticaNeue-Medium,Helvetica Neue" font-size="42.0" fill="#F38F18" transform="matrix(1.00, 0.00, -0.00, -1.00, 512.0, 584.5)">B</text><text xml:space="preserve" font-family="HelveticaNeue-Medium,Helvetica Neue" font-size="42.0" fill="#F38F18" transform="matrix(1.00, 0.00, -0.00, -1.00, 541.5, 584.5)">o</text><text xml:space="preserve" font-family="HelveticaNeue-Medium,Helvetica Neue" font-size="42.0" fill="#F38F18" transform="matrix(1.00, 0.00, -0.00, -1.00, 566.5, 584.5)">o</text><text xml:space="preserve" font-family="HelveticaNeue-Medium,Helvetica Neue" font-size="42.0" fill="#F38F18" transform="matrix(1.00, 0.00, -0.00, -1.00, 591.4, 584.5)">s</text><text xml:space="preserve" font-family="HelveticaNeue-Medium,Helvetica Neue" font-size="42.0" fill="#F38F18" transform="matrix(1.00, 0.00, -0.00, -1.00, 613.2, 584.5)">t</text><text xml:space="preserve" font-family="HelveticaNeue,Helvetica Neue" font-size="42.0" fill="#F38F18" transform="matrix(1.00, 0.00, -0.00, -1.00, 627.1, 584.5)"> </text><text xml:space="preserve" font-family="HelveticaNeue-Thin,Helvetica Neue" font-size="42.0" fill="#F38F18" transform="matrix(1.00, 0.00, -0.00, -1.00, 638.8, 584.5)">2</text><text xml:space="preserve" font-family="HelveticaNeue-Thin,Helvetica Neue" font-size="42.0" fill="#F38F18" transform="matrix(1.00, 0.00, -0.00, -1.00, 662.2, 584.5)">0</text><text xml:space="preserve" font-family="HelveticaNeue-Thin,Helvetica Neue" font-size="42.0" fill="#F38F18" transform="matrix(1.00, 0.00, -0.00, -1.00, 685.5, 584.5)">1</text><text xml:space="preserve" font-family="HelveticaNeue-Thin,Helvetica Neue" font-size="42.0" fill="#F38F18" transform="matrix(1.00, 0.00, -0.00, -1.00, 708.9, 584.5)">5</text></g></svg>