<?xml version="1.0" encoding="UTF-8" standalone="no"?><svg xmlns="http://www.w3.org/2000/svg" xmlns:xlink="http://www.w3.org/1999/xlink" clip-rule="evenodd" stroke-miterlimit="10" viewBox="0 0 1024 768"><desc>SVG generated by Keynote</desc><defs></defs><g transform="matrix(1.00, 0.00, -0.00, -1.00, 0.0, 768.0)"><image xlink:href="../../1F77AA52-FA87-46A3-A195-4FF666DB5CAD/assets/4EDBB8264EA0653F3F6DA7993217AB77.png" width="550.00" height="366.00" transform="matrix(2.12, 0.00, -0.00, -2.12, -32.0, 772.0)"></image><text xml:space="preserve" font-family="Bitter-Bold,Bitter" font-weight="bold" font-size="60.0" fill="#000000" transform="matrix(1.00, 0.00, -0.00, -1.00, 572.0, 658.9)">D</text><text xml:space="preserve" font-family="Bitter-Bold,Bitter" font-weight="bold" font-size="60.0" fill="#000000" transform="matrix(1.00, 0.00, -0.00, -1.00, 615.8, 658.9)">i</text><text xml:space="preserve" font-family="Bitter-Bold,Bitter" font-weight="bold" font-size="60.0" fill="#000000" transform="matrix(1.00, 0.00, -0.00, -1.00, 637.3, 658.9)">e</text><text xml:space="preserve" font-family="Bitter-Bold,Bitter" font-weight="bold" font-size="60.0" fill="#000000" transform="matrix(1.00, 0.00, -0.00, -1.00, 670.7, 658.9)">t</text><text xml:space="preserve" font-family="Bitter-Bold,Bitter" font-weight="bold" font-size="60.0" fill="#000000" transform="matrix(1.00, 0.00, -0.00, -1.00, 696.9, 658.9)">e</text><text xml:space="preserve" font-family="Bitter-Bold,Bitter" font-weight="bold" font-size="60.0" fill="#000000" transform="matrix(1.00, 0.00, -0.00, -1.00, 730.4, 658.9)">r</text><text xml:space="preserve" font-family="Bitter-Bold,Bitter" font-weight="bold" font-size="60.0" fill="#000000" transform="matrix(1.00, 0.00, -0.00, -1.00, 759.8, 658.9)"> </text><text xml:space="preserve" font-family="Bitter-Bold,Bitter" font-weight="bold" font-size="60.0" fill="#000000" transform="matrix(1.00, 0.00, -0.00, -1.00, 773.9, 658.9)">R</text><text xml:space="preserve" font-family="Bitter-Bold,Bitter" font-weight="bold" font-size="60.0" fill="#000000" transform="matrix(1.00, 0.00, -0.00, -1.00, 814.7, 658.9)">a</text><text xml:space="preserve" font-family="Bitter-Bold,Bitter" font-weight="bold" font-size="60.0" fill="#000000" transform="matrix(1.00, 0.00, -0.00, -1.00, 850.2, 658.9)">m</text><text xml:space="preserve" font-family="Bitter-Bold,Bitter" font-weight="bold" font-size="60.0" fill="#000000" transform="matrix(1.00, 0.00, -0.00, -1.00, 909.1, 658.9)">s</text></g></svg>