<?xml version="1.0" encoding="UTF-8" standalone="no"?><svg xmlns="http://www.w3.org/2000/svg" xmlns:xlink="http://www.w3.org/1999/xlink" clip-rule="evenodd" stroke-miterlimit="10" viewBox="0 0 572 94"><desc>SVG generated by Keynote</desc><defs></defs><g transform="matrix(1.00, 0.00, -0.00, -1.00, 0.0, 94.0)"><text xml:space="preserve" font-family="HelveticaNeue-Thin,Helvetica Neue" font-size="98.0" fill="#414141" transform="matrix(1.00, 0.00, -0.00, -1.00, -4.0, 20.6)">L</text><text xml:space="preserve" font-family="HelveticaNeue-Thin,Helvetica Neue" font-size="98.0" fill="#414141" transform="matrix(1.00, 0.00, -0.00, -1.00, 43.2, 20.6)">o</text><text xml:space="preserve" font-family="HelveticaNeue-Thin,Helvetica Neue" font-size="98.0" fill="#414141" transform="matrix(1.00, 0.00, -0.00, -1.00, 95.8, 20.6)">r</text><text xml:space="preserve" font-family="HelveticaNeue-Thin,Helvetica Neue" font-size="98.0" fill="#414141" transform="matrix(1.00, 0.00, -0.00, -1.00, 121.9, 20.6)">e</text><text xml:space="preserve" font-family="HelveticaNeue-Thin,Helvetica Neue" font-size="98.0" fill="#414141" transform="matrix(1.00, 0.00, -0.00, -1.00, 172.8, 20.6)">m</text><text xml:space="preserve" font-family="HelveticaNeue-Thin,Helvetica Neue" font-size="98.0" fill="#414141" transform="matrix(1.00, 0.00, -0.00, -1.00, 250.8, 20.6)"> </text><text xml:space="preserve" font-family="HelveticaNeue-Thin,Helvetica Neue" font-size="98.0" fill="#414141" transform="matrix(1.00, 0.00, -0.00, -1.00, 278.0, 20.6)">I</text><text xml:space="preserve" font-family="HelveticaNeue-Thin,Helvetica Neue" font-size="98.0" fill="#414141" transform="matrix(1.00, 0.00, -0.00, -1.00, 294.7, 20.6)">p</text><text xml:space="preserve" font-family="HelveticaNeue-Thin,Helvetica Neue" font-size="98.0" fill="#414141" transform="matrix(1.00, 0.00, -0.00, -1.00, 349.2, 20.6)">s</text><text xml:space="preserve" font-family="HelveticaNeue-Thin,Helvetica Neue" font-size="98.0" fill="#414141" transform="matrix(1.00, 0.00, -0.00, -1.00, 396.3, 20.6)">u</text><text xml:space="preserve" font-family="HelveticaNeue-Thin,Helvetica Neue" font-size="98.0" fill="#414141" transform="matrix(1.00, 0.00, -0.00, -1.00, 447.2, 20.6)">m</text><text xml:space="preserve" font-family="HelveticaNeue-Thin,Helvetica Neue" font-size="98.0" fill="#414141" transform="matrix(1.00, 0.00, -0.00, -1.00, 525.2, 20.6)">?</text></g></svg>