<?xml version="1.0" encoding="UTF-8" standalone="no"?><svg xmlns="http://www.w3.org/2000/svg" xmlns:xlink="http://www.w3.org/1999/xlink" clip-rule="evenodd" stroke-miterlimit="10" viewBox="0 0 1024 768"><desc>SVG generated by Keynote</desc><defs></defs><g transform="matrix(1.00, 0.00, -0.00, -1.00, 0.0, 768.0)"><path d="M 0.0 768.0 L 1024.0 768.0 L 1024.0 0.0 L 0.0 0.0 Z M 0.0 768.0 " fill="#F4F4F4"></path><text xml:space="preserve" font-family="HelveticaNeue-Thin,Helvetica Neue" font-size="98.0" fill="#414141" transform="matrix(1.00, 0.00, -0.00, -1.00, 105.6, 414.3)">H</text><text xml:space="preserve" font-family="HelveticaNeue-Thin,Helvetica Neue" font-size="98.0" fill="#414141" transform="matrix(1.00, 0.00, -0.00, -1.00, 171.3, 414.3)">v</text><text xml:space="preserve" font-family="HelveticaNeue-Thin,Helvetica Neue" font-size="98.0" fill="#414141" transform="matrix(1.00, 0.00, -0.00, -1.00, 214.8, 414.3)">o</text><text xml:space="preserve" font-family="HelveticaNeue-Thin,Helvetica Neue" font-size="98.0" fill="#414141" transform="matrix(1.00, 0.00, -0.00, -1.00, 267.4, 414.3)">r</text><text xml:space="preserve" font-family="HelveticaNeue-Thin,Helvetica Neue" font-size="98.0" fill="#414141" transform="matrix(1.00, 0.00, -0.00, -1.00, 297.2, 414.3)">f</text><text xml:space="preserve" font-family="HelveticaNeue-Thin,Helvetica Neue" font-size="98.0" fill="#414141" transform="matrix(1.00, 0.00, -0.00, -1.00, 320.9, 414.3)">o</text><text xml:space="preserve" font-family="HelveticaNeue-Thin,Helvetica Neue" font-size="98.0" fill="#414141" transform="matrix(1.00, 0.00, -0.00, -1.00, 373.5, 414.3)">r</text><text xml:space="preserve" font-family="HelveticaNeue-Thin,Helvetica Neue" font-size="98.0" fill="#414141" transform="matrix(1.00, 0.00, -0.00, -1.00, 400.7, 414.3)"> </text><text xml:space="preserve" font-family="HelveticaNeue-Thin,Helvetica Neue" font-size="98.0" fill="#414141" transform="matrix(1.00, 0.00, -0.00, -1.00, 428.0, 414.3)">b</text><text xml:space="preserve" font-family="HelveticaNeue-Thin,Helvetica Neue" font-size="98.0" fill="#414141" transform="matrix(1.00, 0.00, -0.00, -1.00, 482.5, 414.3)">r</text><text xml:space="preserve" font-family="HelveticaNeue-Thin,Helvetica Neue" font-size="98.0" fill="#414141" transform="matrix(1.00, 0.00, -0.00, -1.00, 509.7, 414.3)">u</text><text xml:space="preserve" font-family="HelveticaNeue-Thin,Helvetica Neue" font-size="98.0" fill="#414141" transform="matrix(1.00, 0.00, -0.00, -1.00, 560.6, 414.3)">g</text><text xml:space="preserve" font-family="HelveticaNeue-Thin,Helvetica Neue" font-size="98.0" fill="#414141" transform="matrix(1.00, 0.00, -0.00, -1.00, 613.2, 414.3)">e</text><text xml:space="preserve" font-family="HelveticaNeue-Thin,Helvetica Neue" font-size="98.0" fill="#414141" transform="matrix(1.00, 0.00, -0.00, -1.00, 664.0, 414.3)"> </text><text xml:space="preserve" font-family="HelveticaNeue-Thin,Helvetica Neue" font-size="98.0" fill="#414141" transform="matrix(1.00, 0.00, -0.00, -1.00, 691.3, 414.3)">t</text><text xml:space="preserve" font-family="HelveticaNeue-Thin,Helvetica Neue" font-size="98.0" fill="#414141" transform="matrix(1.00, 0.00, -0.00, -1.00, 716.7, 414.3)">i</text><text xml:space="preserve" font-family="HelveticaNeue-Thin,Helvetica Neue" font-size="98.0" fill="#414141" transform="matrix(1.00, 0.00, -0.00, -1.00, 733.1, 414.3)">d</text><text xml:space="preserve" font-family="HelveticaNeue-Thin,Helvetica Neue" font-size="98.0" fill="#414141" transform="matrix(1.00, 0.00, -0.00, -1.00, 787.6, 414.3)"> </text><text xml:space="preserve" font-family="HelveticaNeue-Thin,Helvetica Neue" font-size="98.0" fill="#414141" transform="matrix(1.00, 0.00, -0.00, -1.00, 814.9, 414.3)">p</text><text xml:space="preserve" font-family="HelveticaNeue-Thin,Helvetica Neue" font-size="98.0" fill="#414141" transform="matrix(1.00, 0.00, -0.00, -1.00, 869.4, 414.3)">å</text><text xml:space="preserve" font-family="HelveticaNeue-Thin,Helvetica Neue" font-size="98.0" fill="#414141" transform="matrix(1.00, 0.00, -0.00, -1.00, 918.4, 414.3)"> </text><text xml:space="preserve" font-family="Bitter-Bold,Bitter" font-weight="bold" font-size="98.0" fill="#414141" transform="matrix(1.00, 0.00, -0.00, -1.00, 203.8, 284.0)">g</text><text xml:space="preserve" font-family="Bitter-Bold,Bitter" font-weight="bold" font-size="98.0" fill="#414141" transform="matrix(1.00, 0.00, -0.00, -1.00, 264.1, 284.0)">o</text><text xml:space="preserve" font-family="Bitter-Bold,Bitter" font-weight="bold" font-size="98.0" fill="#414141" transform="matrix(1.00, 0.00, -0.00, -1.00, 322.1, 284.0)">d</text><text xml:space="preserve" font-family="Bitter-Bold,Bitter" font-weight="bold" font-size="98.0" fill="#414141" transform="matrix(1.00, 0.00, -0.00, -1.00, 383.4, 284.0)">t</text><text xml:space="preserve" font-family="Bitter-Bold,Bitter" font-weight="bold" font-size="98.0" fill="#414141" transform="matrix(1.00, 0.00, -0.00, -1.00, 426.2, 284.0)"> </text><text xml:space="preserve" font-family="Bitter-Bold,Bitter" font-weight="bold" font-size="98.0" fill="#414141" transform="matrix(1.00, 0.00, -0.00, -1.00, 449.2, 284.0)">d</text><text xml:space="preserve" font-family="Bitter-Bold,Bitter" font-weight="bold" font-size="98.0" fill="#414141" transform="matrix(1.00, 0.00, -0.00, -1.00, 510.5, 284.0)">e</text><text xml:space="preserve" font-family="Bitter-Bold,Bitter" font-weight="bold" font-size="98.0" fill="#414141" transform="matrix(1.00, 0.00, -0.00, -1.00, 565.1, 284.0)">s</text><text xml:space="preserve" font-family="Bitter-Bold,Bitter" font-weight="bold" font-size="98.0" fill="#414141" transform="matrix(1.00, 0.00, -0.00, -1.00, 613.2, 284.0)">i</text><text xml:space="preserve" font-family="Bitter-Bold,Bitter" font-weight="bold" font-size="98.0" fill="#414141" transform="matrix(1.00, 0.00, -0.00, -1.00, 648.3, 284.0)">g</text><text xml:space="preserve" font-family="Bitter-Bold,Bitter" font-weight="bold" font-size="98.0" fill="#414141" transform="matrix(1.00, 0.00, -0.00, -1.00, 708.5, 284.0)">n</text><text xml:space="preserve" font-family="Bitter-Bold,Bitter" font-weight="bold" font-size="98.0" fill="#414141" transform="matrix(1.00, 0.00, -0.00, -1.00, 774.7, 284.0)">?</text></g></svg>