<?xml version="1.0" encoding="UTF-8" standalone="no"?><svg xmlns="http://www.w3.org/2000/svg" xmlns:xlink="http://www.w3.org/1999/xlink" clip-rule="evenodd" stroke-miterlimit="10" viewBox="0 0 1024 768"><desc>SVG generated by Keynote</desc><defs></defs><g transform="matrix(1.00, 0.00, -0.00, -1.00, 0.0, 768.0)"><path d="M 0.0 768.0 L 1024.0 768.0 L 1024.0 0.0 L 0.0 0.0 Z M 0.0 768.0 " fill="#F4F4F4"></path><text xml:space="preserve" font-family="HelveticaNeue-Thin,Helvetica Neue" font-size="98.0" fill="#414141" transform="matrix(1.00, 0.00, -0.00, -1.00, 182.5, 346.6)">B</text><text xml:space="preserve" font-family="HelveticaNeue-Thin,Helvetica Neue" font-size="98.0" fill="#414141" transform="matrix(1.00, 0.00, -0.00, -1.00, 244.3, 346.6)">r</text><text xml:space="preserve" font-family="HelveticaNeue-Thin,Helvetica Neue" font-size="98.0" fill="#414141" transform="matrix(1.00, 0.00, -0.00, -1.00, 271.5, 346.6)">u</text><text xml:space="preserve" font-family="HelveticaNeue-Thin,Helvetica Neue" font-size="98.0" fill="#414141" transform="matrix(1.00, 0.00, -0.00, -1.00, 322.4, 346.6)">g</text><text xml:space="preserve" font-family="HelveticaNeue-Thin,Helvetica Neue" font-size="98.0" fill="#414141" transform="matrix(1.00, 0.00, -0.00, -1.00, 375.0, 346.6)">e</text><text xml:space="preserve" font-family="HelveticaNeue-Thin,Helvetica Neue" font-size="98.0" fill="#414141" transform="matrix(1.00, 0.00, -0.00, -1.00, 425.9, 346.6)">r</text><text xml:space="preserve" font-family="HelveticaNeue-Thin,Helvetica Neue" font-size="98.0" fill="#414141" transform="matrix(1.00, 0.00, -0.00, -1.00, 454.5, 346.6)">v</text><text xml:space="preserve" font-family="HelveticaNeue-Thin,Helvetica Neue" font-size="98.0" fill="#414141" transform="matrix(1.00, 0.00, -0.00, -1.00, 498.0, 346.6)">e</text><text xml:space="preserve" font-family="HelveticaNeue-Thin,Helvetica Neue" font-size="98.0" fill="#414141" transform="matrix(1.00, 0.00, -0.00, -1.00, 548.8, 346.6)">n</text><text xml:space="preserve" font-family="HelveticaNeue-Thin,Helvetica Neue" font-size="98.0" fill="#414141" transform="matrix(1.00, 0.00, -0.00, -1.00, 599.7, 346.6)">l</text><text xml:space="preserve" font-family="HelveticaNeue-Thin,Helvetica Neue" font-size="98.0" fill="#414141" transform="matrix(1.00, 0.00, -0.00, -1.00, 616.2, 346.6)">i</text><text xml:space="preserve" font-family="HelveticaNeue-Thin,Helvetica Neue" font-size="98.0" fill="#414141" transform="matrix(1.00, 0.00, -0.00, -1.00, 632.6, 346.6)">g</text><text xml:space="preserve" font-family="HelveticaNeue-Thin,Helvetica Neue" font-size="98.0" fill="#414141" transform="matrix(1.00, 0.00, -0.00, -1.00, 685.3, 346.6)">h</text><text xml:space="preserve" font-family="HelveticaNeue-Thin,Helvetica Neue" font-size="98.0" fill="#414141" transform="matrix(1.00, 0.00, -0.00, -1.00, 736.1, 346.6)">e</text><text xml:space="preserve" font-family="HelveticaNeue-Thin,Helvetica Neue" font-size="98.0" fill="#414141" transform="matrix(1.00, 0.00, -0.00, -1.00, 787.0, 346.6)">d</text></g></svg>