<?xml version="1.0" encoding="UTF-8" standalone="no"?><svg xmlns="http://www.w3.org/2000/svg" xmlns:xlink="http://www.w3.org/1999/xlink" clip-rule="evenodd" stroke-miterlimit="10" viewBox="0 0 1024 768"><desc>SVG generated by Keynote</desc><defs></defs><g transform="matrix(1.00, 0.00, -0.00, -1.00, 0.0, 768.0)"><path d="M 0.0 768.0 L 1024.0 768.0 L 1024.0 0.0 L 0.0 0.0 Z M 0.0 768.0 " fill="#F3F3F3"></path><text xml:space="preserve" font-family="HelveticaNeue-Thin,Helvetica Neue" font-size="89.2" fill="#414141" transform="matrix(1.00, 0.00, -0.00, -1.00, 258.8, 412.0)">H</text><text xml:space="preserve" font-family="HelveticaNeue-Thin,Helvetica Neue" font-size="89.2" fill="#414141" transform="matrix(1.00, 0.00, -0.00, -1.00, 318.5, 412.0)">v</text><text xml:space="preserve" font-family="HelveticaNeue-Thin,Helvetica Neue" font-size="89.2" fill="#414141" transform="matrix(1.00, 0.00, -0.00, -1.00, 358.1, 412.0)">o</text><text xml:space="preserve" font-family="HelveticaNeue-Thin,Helvetica Neue" font-size="89.2" fill="#414141" transform="matrix(1.00, 0.00, -0.00, -1.00, 406.0, 412.0)">r</text><text xml:space="preserve" font-family="HelveticaNeue-Thin,Helvetica Neue" font-size="89.2" fill="#414141" transform="matrix(1.00, 0.00, -0.00, -1.00, 429.7, 412.0)">d</text><text xml:space="preserve" font-family="HelveticaNeue-Thin,Helvetica Neue" font-size="89.2" fill="#414141" transform="matrix(1.00, 0.00, -0.00, -1.00, 479.3, 412.0)">a</text><text xml:space="preserve" font-family="HelveticaNeue-Thin,Helvetica Neue" font-size="89.2" fill="#414141" transform="matrix(1.00, 0.00, -0.00, -1.00, 523.9, 412.0)">n</text><text xml:space="preserve" font-family="HelveticaNeue-Thin,Helvetica Neue" font-size="89.2" fill="#414141" transform="matrix(1.00, 0.00, -0.00, -1.00, 570.2, 412.0)"> </text><text xml:space="preserve" font-family="HelveticaNeue-Thin,Helvetica Neue" font-size="89.2" fill="#414141" transform="matrix(1.00, 0.00, -0.00, -1.00, 595.0, 412.0)">l</text><text xml:space="preserve" font-family="HelveticaNeue-Thin,Helvetica Neue" font-size="89.2" fill="#414141" transform="matrix(1.00, 0.00, -0.00, -1.00, 610.0, 412.0)">a</text><text xml:space="preserve" font-family="HelveticaNeue-Thin,Helvetica Neue" font-size="89.2" fill="#414141" transform="matrix(1.00, 0.00, -0.00, -1.00, 654.6, 412.0)">v</text><text xml:space="preserve" font-family="HelveticaNeue-Thin,Helvetica Neue" font-size="89.2" fill="#414141" transform="matrix(1.00, 0.00, -0.00, -1.00, 694.2, 412.0)">e</text><text xml:space="preserve" font-family="HelveticaNeue-Thin,Helvetica Neue" font-size="89.2" fill="#414141" transform="matrix(1.00, 0.00, -0.00, -1.00, 740.4, 412.0)">r</text><text xml:space="preserve" font-family="HelveticaNeue-Thin,Helvetica Neue" font-size="89.2" fill="#414141" transform="matrix(1.00, 0.00, -0.00, -1.00, 765.2, 412.0)"> </text><text xml:space="preserve" font-family="HelveticaNeue-Thin,Helvetica Neue" font-size="89.2" fill="#414141" transform="matrix(1.00, 0.00, -0.00, -1.00, 144.8, 293.5)">v</text><text xml:space="preserve" font-family="HelveticaNeue-Thin,Helvetica Neue" font-size="89.2" fill="#414141" transform="matrix(1.00, 0.00, -0.00, -1.00, 184.4, 293.5)">i</text><text xml:space="preserve" font-family="HelveticaNeue-Thin,Helvetica Neue" font-size="89.2" fill="#414141" transform="matrix(1.00, 0.00, -0.00, -1.00, 199.4, 293.5)"> </text><text xml:space="preserve" font-family="HelveticaNeue-Thin,Helvetica Neue" font-size="89.2" fill="#414141" transform="matrix(1.00, 0.00, -0.00, -1.00, 224.2, 293.5)">e</text><text xml:space="preserve" font-family="HelveticaNeue-Thin,Helvetica Neue" font-size="89.2" fill="#414141" transform="matrix(1.00, 0.00, -0.00, -1.00, 270.5, 293.5)">t</text><text xml:space="preserve" font-family="HelveticaNeue-Thin,Helvetica Neue" font-size="89.2" fill="#414141" transform="matrix(1.00, 0.00, -0.00, -1.00, 293.6, 293.5)"> </text><text xml:space="preserve" font-family="Bitter-Bold,Bitter" font-weight="bold" font-size="89.2" fill="#414141" transform="matrix(1.00, 0.00, -0.00, -1.00, 318.3, 293.5)">g</text><text xml:space="preserve" font-family="Bitter-Bold,Bitter" font-weight="bold" font-size="89.2" fill="#414141" transform="matrix(1.00, 0.00, -0.00, -1.00, 373.2, 293.5)">o</text><text xml:space="preserve" font-family="Bitter-Bold,Bitter" font-weight="bold" font-size="89.2" fill="#414141" transform="matrix(1.00, 0.00, -0.00, -1.00, 426.0, 293.5)">d</text><text xml:space="preserve" font-family="Bitter-Bold,Bitter" font-weight="bold" font-size="89.2" fill="#414141" transform="matrix(1.00, 0.00, -0.00, -1.00, 481.7, 293.5)">t</text><text xml:space="preserve" font-family="Bitter-Bold,Bitter" font-weight="bold" font-size="89.2" fill="#414141" transform="matrix(1.00, 0.00, -0.00, -1.00, 520.7, 293.5)"> </text><text xml:space="preserve" font-family="Bitter-Bold,Bitter" font-weight="bold" font-size="89.2" fill="#414141" transform="matrix(1.00, 0.00, -0.00, -1.00, 541.7, 293.5)">d</text><text xml:space="preserve" font-family="Bitter-Bold,Bitter" font-weight="bold" font-size="89.2" fill="#414141" transform="matrix(1.00, 0.00, -0.00, -1.00, 597.4, 293.5)">e</text><text xml:space="preserve" font-family="Bitter-Bold,Bitter" font-weight="bold" font-size="89.2" fill="#414141" transform="matrix(1.00, 0.00, -0.00, -1.00, 647.1, 293.5)">s</text><text xml:space="preserve" font-family="Bitter-Bold,Bitter" font-weight="bold" font-size="89.2" fill="#414141" transform="matrix(1.00, 0.00, -0.00, -1.00, 690.9, 293.5)">i</text><text xml:space="preserve" font-family="Bitter-Bold,Bitter" font-weight="bold" font-size="89.2" fill="#414141" transform="matrix(1.00, 0.00, -0.00, -1.00, 722.8, 293.5)">g</text><text xml:space="preserve" font-family="Bitter-Bold,Bitter" font-weight="bold" font-size="89.2" fill="#414141" transform="matrix(1.00, 0.00, -0.00, -1.00, 777.6, 293.5)">n</text><text xml:space="preserve" font-family="Bitter-Bold,Bitter" font-weight="bold" font-size="89.2" fill="#414141" transform="matrix(1.00, 0.00, -0.00, -1.00, 837.8, 293.5)">?</text></g></svg>