<?xml version="1.0" encoding="UTF-8" standalone="no"?><svg xmlns="http://www.w3.org/2000/svg" xmlns:xlink="http://www.w3.org/1999/xlink" clip-rule="evenodd" stroke-miterlimit="10" viewBox="0 0 1024 768"><desc>SVG generated by Keynote</desc><defs></defs><g transform="matrix(1.00, 0.00, -0.00, -1.00, 0.0, 768.0)"><path d="M 0.0 768.0 L 1024.0 768.0 L 1024.0 0.0 L 0.0 0.0 Z M 0.0 768.0 " fill="#F4F4F4"></path><g><clipPath id="clip0x610000eaf180"><path d="M 105.0 586.0 L 478.0 586.0 L 478.0 132.0 L 105.0 132.0 Z M 105.1 585.6 "></path></clipPath><g clip-path="url(#clip0x610000eaf180)"><image xlink:href="../../C6477357-47C7-496A-811C-AF69FDA0C55B/assets/83A3CD42AF69895AE1D4BB0693368355.png" width="2337.00" height="4096.00" transform="matrix(0.16, 0.00, -0.00, -0.16, 105.0, 586.0)"></image></g></g><image xlink:href="../../C6477357-47C7-496A-811C-AF69FDA0C55B/assets/6D4AD2FCFC8C9D919A8AF54D5CC755D5.png" width="387.00" height="471.00" transform="matrix(1.00, 0.00, -0.00, 1.00, 98.1, 118.3)"></image><g><clipPath id="clip0x608000cbdee0"><path d="M 554.0 586.0 L 927.0 586.0 L 927.0 132.0 L 554.0 132.0 Z M 553.9 585.6 "></path></clipPath><g clip-path="url(#clip0x608000cbdee0)"><image xlink:href="../../C6477357-47C7-496A-811C-AF69FDA0C55B/assets/E5F55B98189B36F4FF91D631FC988F47.png" width="2063.00" height="4096.00" transform="matrix(0.18, 0.00, -0.00, -0.18, 554.0, 586.0)"></image></g></g><image xlink:href="../../C6477357-47C7-496A-811C-AF69FDA0C55B/assets/6D4AD2FCFC8C9D919A8AF54D5CC755D5.png" width="387.00" height="471.00" transform="matrix(1.00, 0.00, -0.00, 1.00, 546.9, 118.3)"></image><text xml:space="preserve" font-family="HelveticaNeue-Thin,Helvetica Neue" font-size="56.0" fill="#414141" transform="matrix(1.00, 0.00, -0.00, -1.00, 254.6, 652.8)">F</text><text xml:space="preserve" font-family="HelveticaNeue-Thin,Helvetica Neue" font-size="56.0" fill="#414141" transform="matrix(1.00, 0.00, -0.00, -1.00, 283.4, 652.8)">ø</text><text xml:space="preserve" font-family="HelveticaNeue-Thin,Helvetica Neue" font-size="56.0" fill="#414141" transform="matrix(1.00, 0.00, -0.00, -1.00, 313.5, 652.8)">r</text><text xml:space="preserve" font-family="HelveticaNeue-Thin,Helvetica Neue" font-size="56.0" fill="#414141" transform="matrix(1.00, 0.00, -0.00, -1.00, 689.0, 652.8)">E</text><text xml:space="preserve" font-family="HelveticaNeue-Thin,Helvetica Neue" font-size="56.0" fill="#414141" transform="matrix(1.00, 0.00, -0.00, -1.00, 720.3, 652.8)">f</text><text xml:space="preserve" font-family="HelveticaNeue-Thin,Helvetica Neue" font-size="56.0" fill="#414141" transform="matrix(1.00, 0.00, -0.00, -1.00, 733.8, 652.8)">t</text><text xml:space="preserve" font-family="HelveticaNeue-Thin,Helvetica Neue" font-size="56.0" fill="#414141" transform="matrix(1.00, 0.00, -0.00, -1.00, 747.6, 652.8)">e</text><text xml:space="preserve" font-family="HelveticaNeue-Thin,Helvetica Neue" font-size="56.0" fill="#414141" transform="matrix(1.00, 0.00, -0.00, -1.00, 776.6, 652.8)">r</text></g></svg>