<?xml version="1.0" encoding="UTF-8" standalone="no"?><svg xmlns="http://www.w3.org/2000/svg" xmlns:xlink="http://www.w3.org/1999/xlink" clip-rule="evenodd" stroke-miterlimit="10" viewBox="0 0 1024 768"><desc>SVG generated by Keynote</desc><defs></defs><g transform="matrix(1.00, 0.00, -0.00, -1.00, 0.0, 768.0)"><path d="M 0.0 768.0 L 1024.0 768.0 L 1024.0 0.0 L 0.0 0.0 Z M 0.0 768.0 " fill="#F4F4F4"></path><text xml:space="preserve" font-family="HelveticaNeue-Thin,Helvetica Neue" font-size="98.0" fill="#414141" transform="matrix(1.00, 0.00, -0.00, -1.00, 273.2, 346.6)">T</text><text xml:space="preserve" font-family="HelveticaNeue-Thin,Helvetica Neue" font-size="98.0" fill="#414141" transform="matrix(1.00, 0.00, -0.00, -1.00, 314.6, 346.6)">a</text><text xml:space="preserve" font-family="HelveticaNeue-Thin,Helvetica Neue" font-size="98.0" fill="#414141" transform="matrix(1.00, 0.00, -0.00, -1.00, 363.6, 346.6)">k</text><text xml:space="preserve" font-family="HelveticaNeue-Thin,Helvetica Neue" font-size="98.0" fill="#414141" transform="matrix(1.00, 0.00, -0.00, -1.00, 407.8, 346.6)">e</text><text xml:space="preserve" font-family="HelveticaNeue-Thin,Helvetica Neue" font-size="98.0" fill="#414141" transform="matrix(1.00, 0.00, -0.00, -1.00, 458.7, 346.6)">-</text><text xml:space="preserve" font-family="HelveticaNeue-Thin,Helvetica Neue" font-size="98.0" fill="#414141" transform="matrix(1.00, 0.00, -0.00, -1.00, 493.2, 346.6)">a</text><text xml:space="preserve" font-family="HelveticaNeue-Thin,Helvetica Neue" font-size="98.0" fill="#414141" transform="matrix(1.00, 0.00, -0.00, -1.00, 542.2, 346.6)">w</text><text xml:space="preserve" font-family="HelveticaNeue-Thin,Helvetica Neue" font-size="98.0" fill="#414141" transform="matrix(1.00, 0.00, -0.00, -1.00, 611.2, 346.6)">a</text><text xml:space="preserve" font-family="HelveticaNeue-Thin,Helvetica Neue" font-size="98.0" fill="#414141" transform="matrix(1.00, 0.00, -0.00, -1.00, 660.2, 346.6)">y</text><text xml:space="preserve" font-family="HelveticaNeue-Thin,Helvetica Neue" font-size="98.0" fill="#414141" transform="matrix(1.00, 0.00, -0.00, -1.00, 703.7, 346.6)">s</text></g></svg>