<?xml version="1.0" encoding="UTF-8" standalone="no"?><svg xmlns="http://www.w3.org/2000/svg" xmlns:xlink="http://www.w3.org/1999/xlink" clip-rule="evenodd" stroke-miterlimit="10" viewBox="0 0 1024 768"><desc>SVG generated by Keynote</desc><defs></defs><g transform="matrix(1.00, 0.00, -0.00, -1.00, 0.0, 768.0)"><path d="M 0.0 768.0 L 1024.0 768.0 L 1024.0 0.0 L 0.0 0.0 Z M 0.0 768.0 " fill="#F3F3F3"></path><text xml:space="preserve" font-family="HelveticaNeue-Thin,Helvetica Neue" font-size="98.0" fill="#414141" transform="matrix(1.00, 0.00, -0.00, -1.00, 353.0, 415.0)">H</text><text xml:space="preserve" font-family="HelveticaNeue-Thin,Helvetica Neue" font-size="98.0" fill="#414141" transform="matrix(1.00, 0.00, -0.00, -1.00, 418.7, 415.0)">v</text><text xml:space="preserve" font-family="HelveticaNeue-Thin,Helvetica Neue" font-size="98.0" fill="#414141" transform="matrix(1.00, 0.00, -0.00, -1.00, 462.2, 415.0)">a</text><text xml:space="preserve" font-family="HelveticaNeue-Thin,Helvetica Neue" font-size="98.0" fill="#414141" transform="matrix(1.00, 0.00, -0.00, -1.00, 511.2, 415.0)">d</text><text xml:space="preserve" font-family="HelveticaNeue-Thin,Helvetica Neue" font-size="98.0" fill="#414141" transform="matrix(1.00, 0.00, -0.00, -1.00, 565.7, 415.0)"> </text><text xml:space="preserve" font-family="HelveticaNeue-Thin,Helvetica Neue" font-size="98.0" fill="#414141" transform="matrix(1.00, 0.00, -0.00, -1.00, 592.9, 415.0)">e</text><text xml:space="preserve" font-family="HelveticaNeue-Thin,Helvetica Neue" font-size="98.0" fill="#414141" transform="matrix(1.00, 0.00, -0.00, -1.00, 643.8, 415.0)">r</text><text xml:space="preserve" font-family="HelveticaNeue-Thin,Helvetica Neue" font-size="98.0" fill="#414141" transform="matrix(1.00, 0.00, -0.00, -1.00, 671.0, 415.0)"> </text><text xml:space="preserve" font-family="Bitter-Bold,Bitter" font-weight="bold" font-size="98.0" fill="#414141" transform="matrix(1.00, 0.00, -0.00, -1.00, 203.8, 284.7)">g</text><text xml:space="preserve" font-family="Bitter-Bold,Bitter" font-weight="bold" font-size="98.0" fill="#414141" transform="matrix(1.00, 0.00, -0.00, -1.00, 264.1, 284.7)">o</text><text xml:space="preserve" font-family="Bitter-Bold,Bitter" font-weight="bold" font-size="98.0" fill="#414141" transform="matrix(1.00, 0.00, -0.00, -1.00, 322.1, 284.7)">d</text><text xml:space="preserve" font-family="Bitter-Bold,Bitter" font-weight="bold" font-size="98.0" fill="#414141" transform="matrix(1.00, 0.00, -0.00, -1.00, 383.4, 284.7)">t</text><text xml:space="preserve" font-family="Bitter-Bold,Bitter" font-weight="bold" font-size="98.0" fill="#414141" transform="matrix(1.00, 0.00, -0.00, -1.00, 426.2, 284.7)"> </text><text xml:space="preserve" font-family="Bitter-Bold,Bitter" font-weight="bold" font-size="98.0" fill="#414141" transform="matrix(1.00, 0.00, -0.00, -1.00, 449.2, 284.7)">d</text><text xml:space="preserve" font-family="Bitter-Bold,Bitter" font-weight="bold" font-size="98.0" fill="#414141" transform="matrix(1.00, 0.00, -0.00, -1.00, 510.5, 284.7)">e</text><text xml:space="preserve" font-family="Bitter-Bold,Bitter" font-weight="bold" font-size="98.0" fill="#414141" transform="matrix(1.00, 0.00, -0.00, -1.00, 565.1, 284.7)">s</text><text xml:space="preserve" font-family="Bitter-Bold,Bitter" font-weight="bold" font-size="98.0" fill="#414141" transform="matrix(1.00, 0.00, -0.00, -1.00, 613.2, 284.7)">i</text><text xml:space="preserve" font-family="Bitter-Bold,Bitter" font-weight="bold" font-size="98.0" fill="#414141" transform="matrix(1.00, 0.00, -0.00, -1.00, 648.3, 284.7)">g</text><text xml:space="preserve" font-family="Bitter-Bold,Bitter" font-weight="bold" font-size="98.0" fill="#414141" transform="matrix(1.00, 0.00, -0.00, -1.00, 708.5, 284.7)">n</text><text xml:space="preserve" font-family="Bitter-Bold,Bitter" font-weight="bold" font-size="98.0" fill="#414141" transform="matrix(1.00, 0.00, -0.00, -1.00, 774.7, 284.7)">?</text><text xml:space="preserve" font-family="HelveticaNeue-LightItalic,Helvetica Neue" font-style="italic" font-size="70.0" fill="#52575F" transform="matrix(1.00, 0.00, -0.00, -1.00, 216.4, 133.9)">O</text><text xml:space="preserve" font-family="HelveticaNeue-LightItalic,Helvetica Neue" font-style="italic" font-size="70.0" fill="#52575F" transform="matrix(1.00, 0.00, -0.00, -1.00, 268.2, 133.9)">g</text><text xml:space="preserve" font-family="HelveticaNeue-LightItalic,Helvetica Neue" font-style="italic" font-size="70.0" fill="#52575F" transform="matrix(1.00, 0.00, -0.00, -1.00, 326.6, 133.9)">h</text><text xml:space="preserve" font-family="HelveticaNeue-LightItalic,Helvetica Neue" font-style="italic" font-size="70.0" fill="#52575F" transform="matrix(1.00, 0.00, -0.00, -1.00, 364.2, 133.9)">v</text><text xml:space="preserve" font-family="HelveticaNeue-LightItalic,Helvetica Neue" font-style="italic" font-size="70.0" fill="#52575F" transform="matrix(1.00, 0.00, -0.00, -1.00, 396.6, 133.9)">a</text><text xml:space="preserve" font-family="HelveticaNeue-LightItalic,Helvetica Neue" font-style="italic" font-size="70.0" fill="#52575F" transform="matrix(1.00, 0.00, -0.00, -1.00, 432.9, 133.9)">d</text><text xml:space="preserve" font-family="HelveticaNeue-LightItalic,Helvetica Neue" font-style="italic" font-size="70.0" fill="#52575F" transform="matrix(1.00, 0.00, -0.00, -1.00, 492.6, 133.9)">e</text><text xml:space="preserve" font-family="HelveticaNeue-LightItalic,Helvetica Neue" font-style="italic" font-size="70.0" fill="#52575F" transform="matrix(1.00, 0.00, -0.00, -1.00, 528.9, 133.9)">r</text><text xml:space="preserve" font-family="HelveticaNeue-LightItalic,Helvetica Neue" font-style="italic" font-size="70.0" fill="#52575F" transform="matrix(1.00, 0.00, -0.00, -1.00, 570.4, 133.9)">d</text><text xml:space="preserve" font-family="HelveticaNeue-LightItalic,Helvetica Neue" font-style="italic" font-size="70.0" fill="#52575F" transform="matrix(1.00, 0.00, -0.00, -1.00, 610.6, 133.9)">e</text><text xml:space="preserve" font-family="HelveticaNeue-LightItalic,Helvetica Neue" font-style="italic" font-size="70.0" fill="#52575F" transform="matrix(1.00, 0.00, -0.00, -1.00, 646.9, 133.9)">s</text><text xml:space="preserve" font-family="HelveticaNeue-LightItalic,Helvetica Neue" font-style="italic" font-size="70.0" fill="#52575F" transform="matrix(1.00, 0.00, -0.00, -1.00, 680.6, 133.9)">i</text><text xml:space="preserve" font-family="HelveticaNeue-LightItalic,Helvetica Neue" font-style="italic" font-size="70.0" fill="#52575F" transform="matrix(1.00, 0.00, -0.00, -1.00, 693.5, 133.9)">g</text><text xml:space="preserve" font-family="HelveticaNeue-LightItalic,Helvetica Neue" font-style="italic" font-size="70.0" fill="#52575F" transform="matrix(1.00, 0.00, -0.00, -1.00, 732.5, 133.9)">n</text><text xml:space="preserve" font-family="HelveticaNeue-LightItalic,Helvetica Neue" font-style="italic" font-size="70.0" fill="#52575F" transform="matrix(1.00, 0.00, -0.00, -1.00, 770.1, 133.9)">?</text></g></svg>