<?xml version="1.0" encoding="UTF-8" standalone="no"?><svg xmlns="http://www.w3.org/2000/svg" xmlns:xlink="http://www.w3.org/1999/xlink" clip-rule="evenodd" stroke-miterlimit="10" viewBox="0 0 611 229"><desc>SVG generated by Keynote</desc><defs></defs><g transform="matrix(1.00, 0.00, -0.00, -1.00, 0.0, 229.0)"><text xml:space="preserve" font-family="HelveticaNeue-Thin,Helvetica Neue" font-size="98.0" fill="#414141" transform="matrix(1.00, 0.00, -0.00, -1.00, 147.0, 157.0)">H</text><text xml:space="preserve" font-family="HelveticaNeue-Thin,Helvetica Neue" font-size="98.0" fill="#414141" transform="matrix(1.00, 0.00, -0.00, -1.00, 212.7, 157.0)">v</text><text xml:space="preserve" font-family="HelveticaNeue-Thin,Helvetica Neue" font-size="98.0" fill="#414141" transform="matrix(1.00, 0.00, -0.00, -1.00, 256.2, 157.0)">a</text><text xml:space="preserve" font-family="HelveticaNeue-Thin,Helvetica Neue" font-size="98.0" fill="#414141" transform="matrix(1.00, 0.00, -0.00, -1.00, 305.2, 157.0)">d</text><text xml:space="preserve" font-family="HelveticaNeue-Thin,Helvetica Neue" font-size="98.0" fill="#414141" transform="matrix(1.00, 0.00, -0.00, -1.00, 359.7, 157.0)"> </text><text xml:space="preserve" font-family="HelveticaNeue-Thin,Helvetica Neue" font-size="98.0" fill="#414141" transform="matrix(1.00, 0.00, -0.00, -1.00, 386.9, 157.0)">e</text><text xml:space="preserve" font-family="HelveticaNeue-Thin,Helvetica Neue" font-size="98.0" fill="#414141" transform="matrix(1.00, 0.00, -0.00, -1.00, 437.8, 157.0)">r</text><text xml:space="preserve" font-family="HelveticaNeue-Thin,Helvetica Neue" font-size="98.0" fill="#414141" transform="matrix(1.00, 0.00, -0.00, -1.00, 465.0, 157.0)"> </text><text xml:space="preserve" font-family="Bitter-Bold,Bitter" font-weight="bold" font-size="98.0" fill="#414141" transform="matrix(1.00, 0.00, -0.00, -1.00, -2.2, 26.7)">g</text><text xml:space="preserve" font-family="Bitter-Bold,Bitter" font-weight="bold" font-size="98.0" fill="#414141" transform="matrix(1.00, 0.00, -0.00, -1.00, 58.1, 26.7)">o</text><text xml:space="preserve" font-family="Bitter-Bold,Bitter" font-weight="bold" font-size="98.0" fill="#414141" transform="matrix(1.00, 0.00, -0.00, -1.00, 116.1, 26.7)">d</text><text xml:space="preserve" font-family="Bitter-Bold,Bitter" font-weight="bold" font-size="98.0" fill="#414141" transform="matrix(1.00, 0.00, -0.00, -1.00, 177.4, 26.7)">t</text><text xml:space="preserve" font-family="Bitter-Bold,Bitter" font-weight="bold" font-size="98.0" fill="#414141" transform="matrix(1.00, 0.00, -0.00, -1.00, 220.2, 26.7)"> </text><text xml:space="preserve" font-family="Bitter-Bold,Bitter" font-weight="bold" font-size="98.0" fill="#414141" transform="matrix(1.00, 0.00, -0.00, -1.00, 243.2, 26.7)">d</text><text xml:space="preserve" font-family="Bitter-Bold,Bitter" font-weight="bold" font-size="98.0" fill="#414141" transform="matrix(1.00, 0.00, -0.00, -1.00, 304.5, 26.7)">e</text><text xml:space="preserve" font-family="Bitter-Bold,Bitter" font-weight="bold" font-size="98.0" fill="#414141" transform="matrix(1.00, 0.00, -0.00, -1.00, 359.1, 26.7)">s</text><text xml:space="preserve" font-family="Bitter-Bold,Bitter" font-weight="bold" font-size="98.0" fill="#414141" transform="matrix(1.00, 0.00, -0.00, -1.00, 407.2, 26.7)">i</text><text xml:space="preserve" font-family="Bitter-Bold,Bitter" font-weight="bold" font-size="98.0" fill="#414141" transform="matrix(1.00, 0.00, -0.00, -1.00, 442.3, 26.7)">g</text><text xml:space="preserve" font-family="Bitter-Bold,Bitter" font-weight="bold" font-size="98.0" fill="#414141" transform="matrix(1.00, 0.00, -0.00, -1.00, 502.5, 26.7)">n</text><text xml:space="preserve" font-family="Bitter-Bold,Bitter" font-weight="bold" font-size="98.0" fill="#414141" transform="matrix(1.00, 0.00, -0.00, -1.00, 568.7, 26.7)">?</text></g></svg>