<?xml version="1.0" encoding="UTF-8" standalone="no"?><svg xmlns="http://www.w3.org/2000/svg" xmlns:xlink="http://www.w3.org/1999/xlink" clip-rule="evenodd" stroke-miterlimit="10" viewBox="0 0 1024 768"><desc>SVG generated by Keynote</desc><defs></defs><g transform="matrix(1.00, 0.00, -0.00, -1.00, 0.0, 768.0)"><path d="M 0.0 768.0 L 1024.0 768.0 L 1024.0 0.0 L 0.0 0.0 Z M 0.0 768.0 " fill="#F4F4F4"></path><g><clipPath id="clip0x6100004be120"><path d="M 56.0 695.0 L 378.0 695.0 L 378.0 83.0 L 56.0 83.0 Z M 55.5 695.3 "></path></clipPath><g clip-path="url(#clip0x6100004be120)"><image xlink:href="../../D0A5E3AA-A814-478D-B5E0-A6F8B1BDA877/assets/AF5093BF781A8544936375FBDF401C39.png" width="2156.00" height="4096.00" transform="matrix(0.15, 0.00, -0.00, -0.15, 56.0, 695.0)"></image></g></g><image xlink:href="../../D0A5E3AA-A814-478D-B5E0-A6F8B1BDA877/assets/57BC394C5929E3A5145B365FCF2F0D91.png" width="336.00" height="631.00" transform="matrix(1.00, 0.00, -0.00, 1.00, 48.5, 68.7)"></image><text xml:space="preserve" font-family="HelveticaNeue-Thin,Helvetica Neue" font-size="90.0" fill="#414141" transform="matrix(1.00, 0.00, -0.00, -1.00, 452.1, 397.1)">A</text><text xml:space="preserve" font-family="HelveticaNeue-Thin,Helvetica Neue" font-size="90.0" fill="#414141" transform="matrix(1.00, 0.00, -0.00, -1.00, 505.5, 397.1)">s</text><text xml:space="preserve" font-family="HelveticaNeue-Thin,Helvetica Neue" font-size="90.0" fill="#414141" transform="matrix(1.00, 0.00, -0.00, -1.00, 548.8, 397.1)">k</text><text xml:space="preserve" font-family="HelveticaNeue-Thin,Helvetica Neue" font-size="90.0" fill="#414141" transform="matrix(1.00, 0.00, -0.00, -1.00, 589.4, 397.1)">e</text><text xml:space="preserve" font-family="HelveticaNeue-Thin,Helvetica Neue" font-size="90.0" fill="#414141" transform="matrix(1.00, 0.00, -0.00, -1.00, 636.1, 397.1)"> </text><text xml:space="preserve" font-family="HelveticaNeue-Thin,Helvetica Neue" font-size="90.0" fill="#414141" transform="matrix(1.00, 0.00, -0.00, -1.00, 661.1, 397.1)">H</text><text xml:space="preserve" font-family="HelveticaNeue-Thin,Helvetica Neue" font-size="90.0" fill="#414141" transform="matrix(1.00, 0.00, -0.00, -1.00, 721.4, 397.1)">a</text><text xml:space="preserve" font-family="HelveticaNeue-Thin,Helvetica Neue" font-size="90.0" fill="#414141" transform="matrix(1.00, 0.00, -0.00, -1.00, 766.4, 397.1)">n</text><text xml:space="preserve" font-family="HelveticaNeue-Thin,Helvetica Neue" font-size="90.0" fill="#414141" transform="matrix(1.00, 0.00, -0.00, -1.00, 813.1, 397.1)">s</text><text xml:space="preserve" font-family="HelveticaNeue-Thin,Helvetica Neue" font-size="90.0" fill="#414141" transform="matrix(1.00, 0.00, -0.00, -1.00, 856.4, 397.1)">e</text><text xml:space="preserve" font-family="HelveticaNeue-Thin,Helvetica Neue" font-size="90.0" fill="#414141" transform="matrix(1.00, 0.00, -0.00, -1.00, 903.1, 397.1)">n</text><text xml:space="preserve" font-family="Bitter-Bold,Bitter" font-weight="bold" font-size="47.0" fill="#414141" transform="matrix(1.00, 0.00, -0.00, -1.00, 464.9, 288.4)">D</text><text xml:space="preserve" font-family="Bitter-Bold,Bitter" font-weight="bold" font-size="47.0" fill="#414141" transform="matrix(1.00, 0.00, -0.00, -1.00, 499.2, 288.4)">e</text><text xml:space="preserve" font-family="Bitter-Bold,Bitter" font-weight="bold" font-size="47.0" fill="#414141" transform="matrix(1.00, 0.00, -0.00, -1.00, 525.4, 288.4)">s</text><text xml:space="preserve" font-family="Bitter-Bold,Bitter" font-weight="bold" font-size="47.0" fill="#414141" transform="matrix(1.00, 0.00, -0.00, -1.00, 548.4, 288.4)">i</text><text xml:space="preserve" font-family="Bitter-Bold,Bitter" font-weight="bold" font-size="47.0" fill="#414141" transform="matrix(1.00, 0.00, -0.00, -1.00, 565.3, 288.4)">g</text><text xml:space="preserve" font-family="Bitter-Bold,Bitter" font-weight="bold" font-size="47.0" fill="#414141" transform="matrix(1.00, 0.00, -0.00, -1.00, 594.2, 288.4)">n</text><text xml:space="preserve" font-family="Bitter-Bold,Bitter" font-weight="bold" font-size="47.0" fill="#414141" transform="matrix(1.00, 0.00, -0.00, -1.00, 625.9, 288.4)">e</text><text xml:space="preserve" font-family="Bitter-Bold,Bitter" font-weight="bold" font-size="47.0" fill="#414141" transform="matrix(1.00, 0.00, -0.00, -1.00, 652.1, 288.4)">r</text><text xml:space="preserve" font-family="Bitter-Bold,Bitter" font-weight="bold" font-size="47.0" fill="#414141" transform="matrix(1.00, 0.00, -0.00, -1.00, 675.1, 288.4)"> </text><text xml:space="preserve" font-family="JosefinSlab-LightItalic,Josefin Slab" font-style="italic" font-size="47.0" fill="#414141" transform="matrix(1.00, 0.00, -0.00, -1.00, 686.1, 288.4)">&amp;</text><text xml:space="preserve" font-family="Bitter-Bold,Bitter" font-weight="bold" font-size="47.0" fill="#414141" transform="matrix(1.00, 0.00, -0.00, -1.00, 719.0, 288.4)"> </text><text xml:space="preserve" font-family="Bitter-Bold,Bitter" font-weight="bold" font-size="47.0" fill="#414141" transform="matrix(1.00, 0.00, -0.00, -1.00, 730.1, 288.4)">U</text><text xml:space="preserve" font-family="Bitter-Bold,Bitter" font-weight="bold" font-size="47.0" fill="#414141" transform="matrix(1.00, 0.00, -0.00, -1.00, 766.8, 288.4)">d</text><text xml:space="preserve" font-family="Bitter-Bold,Bitter" font-weight="bold" font-size="47.0" fill="#414141" transform="matrix(1.00, 0.00, -0.00, -1.00, 796.2, 288.4)">v</text><text xml:space="preserve" font-family="Bitter-Bold,Bitter" font-weight="bold" font-size="47.0" fill="#414141" transform="matrix(1.00, 0.00, -0.00, -1.00, 824.4, 288.4)">i</text><text xml:space="preserve" font-family="Bitter-Bold,Bitter" font-weight="bold" font-size="47.0" fill="#414141" transform="matrix(1.00, 0.00, -0.00, -1.00, 841.2, 288.4)">k</text><text xml:space="preserve" font-family="Bitter-Bold,Bitter" font-weight="bold" font-size="47.0" fill="#414141" transform="matrix(1.00, 0.00, -0.00, -1.00, 871.0, 288.4)">l</text><text xml:space="preserve" font-family="Bitter-Bold,Bitter" font-weight="bold" font-size="47.0" fill="#414141" transform="matrix(1.00, 0.00, -0.00, -1.00, 887.9, 288.4)">e</text><text xml:space="preserve" font-family="Bitter-Bold,Bitter" font-weight="bold" font-size="47.0" fill="#414141" transform="matrix(1.00, 0.00, -0.00, -1.00, 914.0, 288.4)">r</text></g></svg>